<svg
        xmlns="http://www.w3.org/2000/svg"
>
    <path
            fill-rule="evenodd"
            fill="rgb(231, 76, 60)"
            d="M21.648,21.999 L3.351,21.999 C1.511,21.999 -0.000,
            20.440 -0.000,18.577 L-0.000,7.597 C-0.000,5.732 1.511,
            4.201 3.352,4.201 L5.783,4.187 L8.379,0.375 C8.530,
            0.152 8.777,-0.001 9.052,-0.001 L15.824,-0.001 C16.099,
            -0.001 16.360,0.152 16.511,0.388 L19.024,4.187 L21.648,
            4.201 C23.489,4.201 25.000,5.732 25.000,7.597 L25.000,
            18.577 C25.000,20.440 23.489,21.999 21.648,21.999 ZM23.338,
            18.577 L23.338,7.597 C23.338,6.651 22.569,5.872 21.635,
            5.872 L18.558,5.844 C18.297,5.844 18.036,5.690 17.885,
            5.467 L15.384,1.682 L9.492,1.682 L6.895,5.495 C6.744,
            5.718 6.497,5.871 6.222,5.871 L3.352,5.871 C2.417,5.871
            1.648,6.651 1.648,7.597 L1.648,18.577 C1.648,19.522 2.417,
            20.329 3.352,20.329 L21.648,20.329 C22.582,20.329 23.351,
            19.522 23.351,18.577 L23.338,18.577 ZM20.384,9.809 C19.753,
            9.809 19.244,9.294 19.244,8.655 C19.244,8.014 19.753,7.499
            20.384,7.499 C21.016,7.499 21.525,8.014 21.525,8.655 C21.525,
            9.294 21.016,9.809 20.384,9.809 ZM20.384,8.139 C20.110,8.139
            19.876,8.376 19.876,8.655 C19.876,8.933 20.096,9.169 20.384,
            9.169 C20.673,9.169 20.893,8.933 20.893,8.655 C20.893,8.376
            20.659,8.139 20.384,8.139 ZM20.384,8.974 C20.210,8.974 20.069,
            8.831 20.069,8.655 C20.069,8.477 20.210,8.334 20.384,8.334
            C20.559,8.334 20.700,8.477 20.700,8.655 C20.700,8.831 20.559,
            8.974 20.384,8.974 ZM12.569,18.033 C9.354,18.033 6.731,15.375
            6.731,12.119 C6.731,8.863 9.340,6.205 12.569,6.205 C15.783,
            6.205 18.406,8.863 18.406,12.119 C18.406,15.375 15.783,18.033
            12.569,18.033 ZM12.569,7.875 C10.261,7.875 8.379,9.781 8.379,
            12.119 C8.379,14.456 10.261,16.363 12.569,16.363 C14.876,
            16.363 16.758,14.456 16.758,12.119 C16.758,9.781 14.876,
            7.875 12.569,7.875 Z"
    />
</svg>