<svg
        xmlns="http://www.w3.org/2000/svg"
>
    <path
            fill-rule="evenodd"
            fill="#e74c3c"
            d="M16.459,19.160 L16.459,12.358 C16.459,10.963 15.462,
            9.568 13.828,9.568 C12.193,9.568 11.471,10.963 11.471,
            12.393 L11.471,19.160 L7.330,19.160 L7.330,6.671 L11.445,
            6.671 L11.445,8.381 C12.592,6.915 13.654,6.254 15.462,
            6.254 C17.271,6.254 20.600,7.159 20.600,12.079 L20.600,
            19.160 L16.459,19.160 ZM2.803,4.989 C1.457,4.989 0.367,
            4.004 0.367,2.790 C0.367,1.578 1.457,0.590 2.803,0.590
            C4.147,0.590 5.237,1.578 5.237,2.790 C5.237,4.004 4.147,
            4.989 2.803,4.989 ZM4.855,19.160 L0.715,19.160 L0.715,
            6.671 L4.855,6.671 L4.855,19.160 Z"
    />
</svg>