<svg
        xmlns="http://www.w3.org/2000/svg"
>
    <path
            fill-rule="evenodd"
            fill="rgb(231, 76, 60)"
            d="M17.396,-0.002 C16.884,-0.002 16.371,0.104 15.937,
            0.313 L0.774,7.627 C0.339,7.836 0.002,8.181 0.002,8.625
            C0.002,9.070 0.339,9.414 0.774,9.623 L9.303,13.737
            C9.366,13.767 9.436,13.782 9.507,13.781 L18.036,13.629
            C18.101,13.628 18.165,13.613 18.224,13.585 L30.228,7.795
            C30.662,7.585 31.000,7.242 31.000,6.797 C31.000,6.351
            30.662,6.008 30.228,5.798 L18.855,0.313 C18.421,0.104
            17.909,-0.002 17.396,-0.002 ZM17.396,0.899 C17.797,0.899
            18.198,0.963 18.464,1.091 L29.836,6.576 C30.101,6.704
            30.114,6.801 30.114,6.797 C30.114,6.792 30.101,6.889
            29.836,7.017 L18.028,12.712 L13.801,10.674 C13.735,10.642
            13.661,10.626 13.587,10.629 C13.525,10.632 13.465,10.647
            13.410,10.674 L9.183,12.712 L1.166,8.846 C0.900,8.718 0.888,
            8.621 0.888,8.625 C0.888,8.629 0.900,8.532 1.166,8.404 L16.328,
            1.091 C16.594,0.963 16.995,0.899 17.396,0.899 ZM18.651,2.922
            C18.528,2.925 18.432,3.025 18.435,3.145 C18.437,3.226 18.486,
            3.299 18.562,3.335 L24.880,6.381 C24.988,6.438 25.122,6.397
            25.179,6.290 C25.236,6.185 25.194,6.053 25.086,5.998 C25.082,
            5.996 25.079,5.994 25.075,5.993 L18.758,2.946 C18.724,2.929
            18.688,2.921 18.651,2.922 ZM15.492,4.445 C15.369,4.449 15.273,
            4.548 15.277,4.668 C15.279,4.749 15.328,4.822 15.403,4.857
            L21.721,7.905 C21.829,7.961 21.963,7.920 22.020,7.814 C22.077,
            7.709 22.035,7.577 21.927,7.521 C21.923,7.520 21.920,7.518
            21.916,7.517 L15.599,4.469 C15.566,4.452 15.529,4.445 15.492,
            4.445 ZM12.333,5.969 C12.211,5.973 12.114,6.072 12.118,6.192
            C12.120,6.274 12.169,6.346 12.244,6.381 L18.562,9.429 C18.671,
            9.482 18.804,9.437 18.858,9.330 C18.912,9.223 18.867,9.093
            18.757,9.040 L12.440,5.993 C12.407,5.976 12.370,5.968 12.333,
            5.969 ZM6.874,6.121 C6.839,6.121 6.805,6.129 6.774,6.145 L2.035,
            8.431 C1.925,8.484 1.880,8.613 1.934,8.721 C1.956,8.764 1.991,
            8.799 2.035,8.820 L4.246,9.885 C4.355,9.941 4.488,9.901 4.545,
            9.795 C4.602,9.688 4.561,9.558 4.453,9.502 C4.449,9.501 4.446,
            9.499 4.442,9.498 L2.634,8.625 L6.969,6.534 C7.080,6.482 7.127,
            6.353 7.074,6.246 C7.038,6.169 6.960,6.121 6.874,6.121 ZM13.605,
            11.546 L16.195,12.795 L10.817,12.891 L13.605,11.546 ZM30.381,
            11.599 C30.296,11.599 30.212,11.618 30.137,11.655 L13.421,19.602
            L0.790,13.396 C0.526,13.261 0.202,13.363 0.065,13.621 C-0.071,
            13.879 0.032,14.197 0.296,14.331 C0.300,14.333 0.304,14.334 0.308,
            14.337 L13.176,20.659 C13.326,20.733 13.502,20.734 13.652,20.662
            L30.607,12.603 C30.876,12.479 30.992,12.166 30.866,11.902 C30.778,
            11.718 30.589,11.600 30.381,11.599 ZM18.728,15.809 C18.686,15.810
            18.644,15.820 18.607,15.840 L13.351,18.412 L8.633,16.050 C8.501,
            15.985 8.339,16.036 8.271,16.165 C8.204,16.294 8.256,16.453 8.388,
            16.520 L13.227,18.940 C13.303,18.978 13.393,18.979 13.470,18.942
            L18.847,16.310 C18.981,16.246 19.037,16.090 18.972,15.958 C18.927,
            15.867 18.832,15.809 18.728,15.809 ZM30.381,16.850 C30.296,16.849
            30.212,16.869 30.137,16.906 L13.421,24.851 L0.790,18.645 C0.528,
            18.509 0.202,18.607 0.063,18.864 C-0.076,19.120 0.024,19.439 0.286,
            19.575 C0.293,19.579 0.300,19.582 0.308,19.585 L13.176,25.909
            C13.326,25.982 13.502,25.984 13.652,25.912 L30.607,17.852 C30.876,
            17.730 30.992,17.416 30.866,17.153 C30.778,16.968 30.589,16.851
            30.381,16.850 ZM18.728,21.059 C18.686,21.059 18.644,21.069 18.607,
            21.088 L13.351,23.660 L8.633,21.301 C8.502,21.233 8.339,21.281
            8.269,21.409 C8.200,21.538 8.250,21.697 8.381,21.765 C8.383,21.767
            8.385,21.767 8.388,21.769 L13.227,24.190 C13.304,24.227 13.394,24.228
            13.470,24.191 L18.847,21.559 C18.981,21.496 19.037,21.339 18.973,
            21.208 C18.927,21.116 18.832,21.058 18.728,21.059 Z"
    />
</svg>