<svg
        xmlns="http://www.w3.org/2000/svg"
>
    <path
            fill-rule="evenodd"
            fill="#fff"
            d="M0.168,19.259 C0.168,19.440 0.249,19.601 0.369,
            19.721 L1.371,20.723 C1.491,20.843 1.672,20.923
            1.832,20.923 C1.993,20.923 2.173,20.843 2.293,
            20.723 L11.634,11.382 C11.754,11.262 11.834,11.082
            11.834,10.920 C11.834,10.761 11.754,10.580 11.634,
            10.460 L2.293,1.120 C2.173,0.999 1.993,0.919 1.832,
            0.919 C1.672,0.919 1.491,0.999 1.371,1.120 L0.369,
            2.122 C0.249,2.242 0.168,2.422 0.168,2.583 C0.168,2.742
            0.249,2.924 0.369,3.044 L8.246,10.920 L0.369,18.798
            C0.249,18.919 0.168,19.099 0.168,19.259 Z"
    />
</svg>