<svg
        xmlns="http://www.w3.org/2000/svg"
>
    <path
            fill-rule="evenodd"
            fill="rgb(231, 76, 60)"
            d="M25.961,17.892 L25.220,17.892 L25.220,18.040 C25.220,
            18.282 25.020,18.479 24.775,18.479 C24.529,18.479 24.329,
            18.282 24.329,18.040 L24.329,17.892 L23.439,17.892 L23.439,
            18.040 C23.439,18.282 23.240,18.479 22.994,18.479 C22.749,
            18.479 22.549,18.282 22.549,18.040 L22.549,17.892 L21.659,
            17.892 L21.659,18.040 C21.659,18.282 21.460,18.479 21.214,
            18.479 C20.968,18.479 20.769,18.282 20.769,18.040 L20.769,
            17.892 L1.038,17.892 C0.466,17.892 -0.000,17.432 -0.000,
            16.866 L-0.000,1.026 C-0.000,0.460 0.466,-0.001 1.038,
            -0.001 L25.961,-0.001 C26.534,-0.001 27.000,0.460 27.000,
            1.026 L27.000,16.866 C27.000,17.432 26.534,17.892 25.961,
            17.892 ZM26.110,1.026 C26.110,0.947 26.042,0.878 25.961,
            0.878 L1.038,0.878 C0.958,0.878 0.890,0.947 0.890,1.026
            L0.890,16.866 C0.890,16.945 0.958,17.012 1.038,17.012
            L25.961,17.012 C26.042,17.012 26.110,16.945 26.110,
            16.866 L26.110,1.026 ZM24.775,16.133 L2.225,16.133
            C1.979,16.133 1.780,15.935 1.780,15.692 L1.780,3.959
            C1.780,3.716 1.979,3.519 2.225,3.519 C2.471,3.519
            2.670,3.716 2.670,3.959 L2.670,15.252 L24.329,15.252
            L24.329,13.345 C24.329,13.103 24.529,12.906 24.775,
            12.906 C25.020,12.906 25.220,13.103 25.220,13.345
            L25.220,15.692 C25.220,15.935 25.020,16.133 24.775,
            16.133 ZM24.775,12.025 C24.529,12.025 24.329,11.828
            24.329,11.586 L24.329,2.639 L2.225,2.639 C1.979,2.639
            1.780,2.442 1.780,2.199 C1.780,1.956 1.979,1.759 2.225,
            1.759 L24.775,1.759 C25.020,1.759 25.220,1.956 25.220,
            2.199 L25.220,11.586 C25.220,11.828 25.020,12.025 24.775,
            12.025 ZM6.379,21.119 L11.571,21.119 L11.571,19.212 C11.571,
            18.969 11.771,18.772 12.016,18.772 C12.262,18.772 12.461,
            18.969 12.461,19.212 L12.461,21.119 L14.538,21.119 L14.538,
            19.212 C14.538,18.969 14.738,18.772 14.983,18.772 C15.229,
            18.772 15.428,18.969 15.428,19.212 L15.428,21.119 L20.621,
            21.119 C20.867,21.119 21.066,21.315 21.066,21.559 C21.066,
            21.802 20.867,21.999 20.621,21.999 L6.379,21.999 C6.133,
            21.999 5.934,21.802 5.934,21.559 C5.934,21.315 6.133,21.119
            6.379,21.119 Z"
    />
</svg>