<svg
        xmlns="http://www.w3.org/2000/svg"
>
    <path
            fill-rule="evenodd"
            fill="#e74c3c"
            d="M18.939,11.346 C19.004,10.910 19.049,10.470 19.049,
            10.018 C19.049,5.096 15.078,1.341 10.180,1.341 C9.722,1.341
            9.276,1.387 8.836,1.453 C7.952,0.694 6.807,-0.002 5.553,-0.002
            C2.761,-0.002 0.496,2.273 0.496,5.081 C0.496,6.226 0.878,7.279
            1.515,8.129 C1.384,8.738 1.311,9.369 1.311,10.018 C1.311,14.939
            5.281,19.160 10.180,19.160 C10.810,19.160 11.423,19.093 12.015,
            18.968 C12.904,19.747 14.063,19.988 15.333,19.988 C18.127,
            19.988 20.391,17.714 20.391,14.907 C20.391,13.518 19.837,
            12.263 18.939,11.346 ZM14.319,14.105 C13.969,14.604 13.458,
            14.995 12.785,15.277 C12.112,15.561 11.314,15.701 10.392,
            15.701 C9.285,15.701 8.372,15.508 7.653,15.123 C7.144,14.845
            6.729,14.474 6.410,14.009 C6.092,13.546 5.933,13.096 5.933,
            12.657 C5.933,12.403 6.028,12.186 6.219,12.005 C6.410,11.822
            6.654,11.731 6.950,11.731 C7.189,11.731 7.393,11.802 7.558,
            11.944 C7.724,12.086 7.866,12.294 7.982,12.574 C8.125,12.901
            8.279,13.178 8.445,13.399 C8.611,13.620 8.844,13.803 9.144,
            13.946 C9.446,14.089 9.841,14.162 10.330,14.162 C11.003,14.162
            11.550,14.017 11.970,13.727 C12.391,13.438 12.602,13.076 12.602,
            12.642 C12.602,12.300 12.488,12.019 12.262,11.807 C12.034,11.593
            11.741,11.430 11.382,11.316 C11.022,11.204 10.542,11.083 9.940,
            10.955 C9.134,10.782 8.460,10.578 7.917,10.346 C7.375,10.112
            6.943,9.795 6.625,9.392 C6.306,8.988 6.147,8.489 6.147,7.891
            C6.147,7.320 6.315,6.815 6.652,6.373 C6.988,5.930 7.475,5.589
            8.113,5.351 C8.750,5.113 9.499,4.995 10.361,4.995 C11.049,
            4.995 11.645,5.074 12.147,5.231 C12.649,5.390 13.065,5.598
            13.396,5.859 C13.728,6.122 13.971,6.396 14.123,6.683 C14.276,
            6.970 14.353,7.251 14.353,7.522 C14.353,7.772 14.257,7.999
            14.066,8.197 C13.875,8.396 13.637,8.499 13.351,8.499 C13.091,
            8.499 12.893,8.438 12.758,8.318 C12.623,8.197 12.476,8.002
            12.319,7.728 C12.114,7.337 11.871,7.033 11.584,6.814 C11.298,
            6.594 10.840,6.486 10.207,6.486 C9.622,6.486 9.149,6.603
            8.789,6.841 C8.429,7.079 8.250,7.365 8.250,7.701 C8.250,
            7.906 8.312,8.087 8.434,8.237 C8.555,8.389 8.724,8.516
            8.939,8.624 C9.152,8.733 9.369,8.818 9.588,8.880 C9.807,
            8.939 10.169,9.030 10.675,9.146 C11.306,9.285 11.878,9.436
            12.391,9.600 C12.903,9.764 13.339,9.965 13.698,10.198 C14.058,
            10.435 14.339,10.732 14.540,11.094 C14.741,11.452 14.842,
            11.894 14.842,12.419 C14.842,13.043 14.667,13.607 14.319,
            14.105 Z"
    />
</svg>