<svg
        xmlns="http://www.w3.org/2000/svg"
>
    <path
            fill-rule="evenodd"
            fill="#303030"
            d="M11.831,1.736 C11.831,1.554 11.751,1.394 11.631,1.274 L10.628,
            0.271 C10.508,0.151 10.328,0.072 10.167,0.072 C10.007,0.072 9.827,
            0.151 9.706,0.271 L0.366,9.612 C0.245,9.733 0.165,9.912 0.165,10.074
            C0.165,10.233 0.245,10.414 0.366,10.535 L9.706,19.874 C9.827,19.994
            10.007,20.075 10.167,20.075 C10.328,20.075 10.508,19.994 10.628,19.874
            L11.631,18.873 C11.751,18.753 11.831,18.572 11.831,18.412 C11.831,18.251
            11.751,18.070 11.631,17.950 L3.753,10.074 L11.631,2.197 C11.751,2.075
            11.831,1.896 11.831,1.736 Z"
    />
</svg>